<svg xmlns="http://www.w3.org/2000/svg" viewBox="0 0 1200 900" fill="none" stroke="black" stroke-width="6" stroke-linecap="round" stroke-linejoin="round">
  <!-- Stem -->
  <path d="M600,820 C600,700 590,640 600,540" stroke-width="10" fill="none"/>
  <!-- Leaves -->
  <path d="M597,680 C540,640 480,650 490,700 C500,740 560,730 597,700"/>
  <path d="M603,640 C660,600 720,610 710,660 C700,700 640,690 603,660"/>
  <!-- Petals (8 petals) -->
  <ellipse cx="600" cy="380" rx="58" ry="100" fill="none" stroke="black" stroke-width="6"/>
  <ellipse cx="600" cy="380" rx="58" ry="100" fill="none" stroke="black" stroke-width="6" transform="rotate(45 600 450)"/>
  <ellipse cx="600" cy="380" rx="58" ry="100" fill="none" stroke="black" stroke-width="6" transform="rotate(90 600 450)"/>
  <ellipse cx="600" cy="380" rx="58" ry="100" fill="none" stroke="black" stroke-width="6" transform="rotate(135 600 450)"/>
  <!-- Center circle -->
  <circle cx="600" cy="450" r="80" fill="none" stroke="black" stroke-width="7"/>
  <circle cx="600" cy="450" r="50" fill="none" stroke="black" stroke-width="5"/>
  <!-- Face in center -->
  <circle cx="575" cy="438" r="10" fill="black" stroke="none"/>
  <circle cx="579" cy="434" r="4" fill="none" stroke="none"/>
  <circle cx="625" cy="438" r="10" fill="black" stroke="none"/>
  <circle cx="629" cy="434" r="4" fill="none" stroke="none"/>
  <path d="M582,466 Q600,482 618,466" fill="none" stroke-width="5"/>
  <!-- Small flowers in corners -->
  <circle cx="220" cy="200" r="30" fill="none" stroke="black" stroke-width="5"/>
  <ellipse cx="220" cy="155" rx="20" ry="34" fill="none" stroke="black" stroke-width="4"/>
  <ellipse cx="220" cy="155" rx="20" ry="34" fill="none" stroke="black" stroke-width="4" transform="rotate(60 220 200)"/>
  <ellipse cx="220" cy="155" rx="20" ry="34" fill="none" stroke="black" stroke-width="4" transform="rotate(120 220 200)"/>
  <circle cx="220" cy="200" r="18" fill="none" stroke="black" stroke-width="4"/>

  <circle cx="980" cy="200" r="30" fill="none" stroke="black" stroke-width="5"/>
  <ellipse cx="980" cy="155" rx="20" ry="34" fill="none" stroke="black" stroke-width="4"/>
  <ellipse cx="980" cy="155" rx="20" ry="34" fill="none" stroke="black" stroke-width="4" transform="rotate(60 980 200)"/>
  <ellipse cx="980" cy="155" rx="20" ry="34" fill="none" stroke="black" stroke-width="4" transform="rotate(120 980 200)"/>
  <circle cx="980" cy="200" r="18" fill="none" stroke="black" stroke-width="4"/>
</svg>