<svg xmlns="http://www.w3.org/2000/svg" viewBox="0 0 1200 900" fill="none" stroke="black" stroke-width="6" stroke-linecap="round" stroke-linejoin="round">
  <!-- Body -->
  <ellipse cx="580" cy="600" rx="200" ry="150" fill="none" stroke="black" stroke-width="6"/>
  <!-- Tummy patch -->
  <ellipse cx="590" cy="630" rx="110" ry="90" fill="none" stroke="black" stroke-width="4"/>
  <!-- Neck -->
  <path d="M640,465 C650,430 670,400 680,370" fill="none" stroke-width="12"/>
  <path d="M700,475 C715,440 730,405 730,375" fill="none" stroke-width="12"/>
  <!-- Head -->
  <ellipse cx="700" cy="340" rx="95" ry="80" fill="none" stroke="black" stroke-width="6"/>
  <!-- Snout -->
  <ellipse cx="755" cy="365" rx="48" ry="36" fill="none" stroke="black" stroke-width="5"/>
  <!-- Nose -->
  <ellipse cx="760" cy="350" rx="16" ry="11" fill="black" stroke="none"/>
  <ellipse cx="756" cy="347" rx="5" ry="4" fill="none" stroke="none"/>
  <!-- Eyes -->
  <circle cx="700" cy="320" r="16" fill="black" stroke="none"/>
  <circle cx="706" cy="314" r="6" fill="none" stroke="none"/>
  <circle cx="750" cy="322" r="14" fill="black" stroke="none"/>
  <circle cx="756" cy="316" r="5" fill="none" stroke="none"/>
  <!-- Eyebrows / markings -->
  <path d="M688,300 Q700,292 712,300" fill="none" stroke-width="4"/>
  <path d="M738,302 Q750,294 762,302" fill="none" stroke-width="4"/>
  <!-- Mouth -->
  <path d="M740,374 Q755,386 770,374" fill="none" stroke-width="5"/>
  <!-- Tongue -->
  <ellipse cx="755" cy="382" rx="12" ry="10" fill="none" stroke="black" stroke-width="4"/>
  <!-- Floppy left ear -->
  <path d="M618,295 C570,260 530,280 525,330 C520,375 560,390 610,370 C635,360 645,325 640,300 Z"/>
  <!-- Right ear (up) -->
  <path d="M760,262 C760,220 790,200 810,225 C825,245 815,278 790,290 C775,295 762,282 760,262 Z"/>
  <!-- Tail -->
  <path d="M385,560 C340,520 320,550 335,590 C350,630 390,620 395,590" fill="none" stroke-width="10"/>
  <!-- Collar -->
  <path d="M645,420 Q690,440 735,428" fill="none" stroke-width="10"/>
  <!-- Collar tag -->
  <circle cx="690" cy="440" r="14" fill="none" stroke="black" stroke-width="5"/>
  <!-- Legs front -->
  <rect x="640" y="720" width="44" height="120" rx="18" fill="none" stroke="black" stroke-width="6"/>
  <rect x="720" y="725" width="44" height="118" rx="18" fill="none" stroke="black" stroke-width="6"/>
  <!-- Legs back -->
  <rect x="460" y="720" width="44" height="120" rx="18" fill="none" stroke="black" stroke-width="6"/>
  <rect x="540" y="725" width="44" height="118" rx="18" fill="none" stroke="black" stroke-width="6"/>
  <!-- Paws -->
  <ellipse cx="662" cy="840" rx="26" ry="16" fill="none" stroke="black" stroke-width="5"/>
  <ellipse cx="742" cy="843" rx="26" ry="16" fill="none" stroke="black" stroke-width="5"/>
  <ellipse cx="482" cy="840" rx="26" ry="16" fill="none" stroke="black" stroke-width="5"/>
  <ellipse cx="562" cy="843" rx="26" ry="16" fill="none" stroke="black" stroke-width="5"/>
  <!-- Toe lines on paws -->
  <line x1="653" y1="833" x2="653" y2="847" stroke-width="3"/>
  <line x1="662" y1="831" x2="662" y2="847" stroke-width="3"/>
  <line x1="671" y1="833" x2="671" y2="847" stroke-width="3"/>
  <line x1="733" y1="836" x2="733" y2="850" stroke-width="3"/>
  <line x1="742" y1="834" x2="742" y2="850" stroke-width="3"/>
  <line x1="751" y1="836" x2="751" y2="850" stroke-width="3"/>
</svg>