<svg xmlns="http://www.w3.org/2000/svg" viewBox="0 0 1200 900" fill="none" stroke="black" stroke-width="6" stroke-linecap="round" stroke-linejoin="round">
  <!-- Rainbow arcs (7 bands) - drawn as thick strokes -->
  <path d="M160,700 A440,440 0 0,1 1040,700" fill="none" stroke="black" stroke-width="54"/>
  <path d="M160,700 A440,440 0 0,1 1040,700" fill="none" stroke="white" stroke-width="46"/>
  <path d="M193,700 A407,407 0 0,1 1007,700" fill="none" stroke="black" stroke-width="52"/>
  <path d="M193,700 A407,407 0 0,1 1007,700" fill="none" stroke="white" stroke-width="44"/>
  <path d="M226,700 A374,374 0 0,1 974,700" fill="none" stroke="black" stroke-width="50"/>
  <path d="M226,700 A374,374 0 0,1 974,700" fill="none" stroke="white" stroke-width="42"/>
  <path d="M259,700 A341,341 0 0,1 941,700" fill="none" stroke="black" stroke-width="48"/>
  <path d="M259,700 A341,341 0 0,1 941,700" fill="none" stroke="white" stroke-width="40"/>
  <path d="M292,700 A308,308 0 0,1 908,700" fill="none" stroke="black" stroke-width="46"/>
  <path d="M292,700 A308,308 0 0,1 908,700" fill="none" stroke="white" stroke-width="38"/>
  <path d="M325,700 A275,275 0 0,1 875,700" fill="none" stroke="black" stroke-width="44"/>
  <path d="M325,700 A275,275 0 0,1 875,700" fill="none" stroke="white" stroke-width="36"/>
  <path d="M358,700 A242,242 0 0,1 842,700" fill="none" stroke="black" stroke-width="42"/>
  <path d="M358,700 A242,242 0 0,1 842,700" fill="none" stroke="white" stroke-width="34"/>
  <!-- Outer border arc -->
  <path d="M145,700 A455,455 0 0,1 1055,700" fill="none" stroke="black" stroke-width="8"/>
  <!-- Inner border arc -->
  <path d="M370,700 A230,230 0 0,1 830,700" fill="none" stroke="black" stroke-width="8"/>
  <!-- Ground line -->
  <line x1="100" y1="700" x2="1100" y2="700" stroke-width="6"/>
  <!-- Left cloud -->
  <ellipse cx="200" cy="695" rx="90" ry="55" fill="none" stroke="black" stroke-width="6"/>
  <ellipse cx="155" cy="700" rx="60" ry="45" fill="none" stroke="black" stroke-width="6"/>
  <ellipse cx="250" cy="700" rx="65" ry="48" fill="none" stroke="black" stroke-width="6"/>
  <ellipse cx="200" cy="720" rx="90" ry="38" fill="none" stroke="black" stroke-width="5"/>
  <!-- Right cloud -->
  <ellipse cx="1000" cy="695" rx="90" ry="55" fill="none" stroke="black" stroke-width="6"/>
  <ellipse cx="955" cy="700" rx="60" ry="45" fill="none" stroke="black" stroke-width="6"/>
  <ellipse cx="1050" cy="700" rx="65" ry="48" fill="none" stroke="black" stroke-width="6"/>
  <ellipse cx="1000" cy="720" rx="90" ry="38" fill="none" stroke="black" stroke-width="5"/>
  <!-- Sun top center -->
  <circle cx="600" cy="200" r="70" fill="none" stroke="black" stroke-width="6"/>
  <circle cx="600" cy="200" r="25" fill="none" stroke="black" stroke-width="4"/>
  <!-- Sun rays -->
  <line x1="600" y1="115" x2="600" y2="88" stroke-width="5"/>
  <line x1="650" y1="130" x2="668" y2="108" stroke-width="5"/>
  <line x1="685" y1="165" x2="707" y2="150" stroke-width="5"/>
  <line x1="695" y1="210" x2="720" y2="210" stroke-width="5"/>
  <line x1="685" y1="255" x2="707" y2="270" stroke-width="5"/>
  <line x1="650" y1="285" x2="668" y2="307" stroke-width="5"/>
  <line x1="550" y1="130" x2="532" y2="108" stroke-width="5"/>
  <line x1="515" y1="165" x2="493" y2="150" stroke-width="5"/>
  <line x1="505" y1="210" x2="480" y2="210" stroke-width="5"/>
  <line x1="515" y1="255" x2="493" y2="270" stroke-width="5"/>
  <line x1="550" y1="285" x2="532" y2="307" stroke-width="5"/>
  <!-- Stars -->
  <polygon points="320,180 328,205 355,205 334,220 342,245 320,230 298,245 306,220 285,205 312,205" fill="none" stroke="black" stroke-width="4"/>
  <polygon points="870,160 876,180 898,180 881,192 887,212 870,200 853,212 859,192 842,180 864,180" fill="none" stroke="black" stroke-width="4"/>
</svg>