<svg xmlns="http://www.w3.org/2000/svg" viewBox="0 0 1200 900" fill="none" stroke="black" stroke-width="6" stroke-linecap="round" stroke-linejoin="round">
  <!-- Body -->
  <ellipse cx="600" cy="450" rx="18" ry="110" fill="none" stroke="black" stroke-width="6"/>
  <!-- Antennae -->
  <line x1="590" y1="345" x2="530" y2="270"/>
  <circle cx="526" cy="266" r="10" fill="black"/>
  <line x1="610" y1="345" x2="670" y2="270"/>
  <circle cx="674" cy="266" r="10" fill="black"/>
  <!-- Upper left wing -->
  <path d="M590,390 C480,280 280,260 300,400 C320,500 480,500 590,450"/>
  <!-- Upper right wing -->
  <path d="M610,390 C720,280 920,260 900,400 C880,500 720,500 610,450"/>
  <!-- Lower left wing -->
  <path d="M585,465 C460,490 360,560 400,640 C440,710 560,660 590,560"/>
  <!-- Lower right wing -->
  <path d="M615,465 C740,490 840,560 800,640 C760,710 640,660 610,560"/>
  <!-- Wing decorations upper left -->
  <ellipse cx="440" cy="380" rx="55" ry="38" fill="none" stroke="black" stroke-width="4"/>
  <circle cx="440" cy="380" r="14" fill="none" stroke="black" stroke-width="3"/>
  <!-- Wing decorations upper right -->
  <ellipse cx="760" cy="380" rx="55" ry="38" fill="none" stroke="black" stroke-width="4"/>
  <circle cx="760" cy="380" r="14" fill="none" stroke="black" stroke-width="3"/>
  <!-- Wing decorations lower -->
  <circle cx="480" cy="570" r="24" fill="none" stroke="black" stroke-width="4"/>
  <circle cx="720" cy="570" r="24" fill="none" stroke="black" stroke-width="4"/>
</svg>